<svg width="1400" height="1564" viewBox="0 0 1400 1564" fill="none" xmlns="http://www.w3.org/2000/svg">
<path opacity="0.03" d="M1786.27 404.314C1789.88 402.474 1793.09 401.533 1795.66 401.983H1795.67C1797.12 402.239 1798.2 403.501 1799.04 405.134C1799.89 406.817 1800.62 409.174 1801.24 412.136C1802.49 418.071 1803.34 426.662 1803.74 437.706C1804.54 459.808 1803.55 491.898 1800.29 532.595C1793.76 613.997 1778.11 729.916 1749.39 869.39C1721.11 1006.75 1699.88 1109.84 1675.59 1189.55C1651.29 1269.27 1623.91 1325.7 1583.24 1369.71C1441.65 1522.92 1235.49 1542.61 1030.7 1557.95L1010.89 1559.43C935.231 1565.03 836.032 1566.44 754.009 1558.16C713.005 1554.03 676.236 1547.47 648.834 1537.78C635.134 1532.94 623.726 1527.29 615.294 1520.75C606.858 1514.19 601.341 1506.68 599.563 1498.11C597.432 1487.86 600.032 1478.08 606.194 1468.44C612.342 1458.82 622.066 1449.29 634.285 1439.45C658.695 1419.8 693.436 1398.65 730.257 1373.03C804.024 1321.69 886.631 1252.1 914.563 1139.04C950.897 992.074 1028.69 867.848 1053.65 820.53C1086.14 758.924 1112.13 711.116 1152.3 676.229C1192.51 641.307 1246.81 619.407 1335.78 609.308C1339.94 608.836 1346.52 608.741 1355.01 608.73C1363.51 608.72 1373.96 608.796 1385.91 608.68C1409.81 608.447 1439.65 607.442 1471.66 603.43C1535.7 595.402 1608.25 575.355 1659.16 525.533C1672.6 512.375 1686.67 497.899 1700.51 483.626C1714.34 469.357 1727.94 455.29 1740.42 442.967C1752.9 430.648 1764.28 420.044 1773.68 412.711C1778.38 409.046 1782.62 406.174 1786.27 404.314ZM1795.32 403.953C1793.41 403.62 1790.7 404.297 1787.18 406.095C1783.69 407.872 1779.57 410.658 1774.91 414.288C1765.61 421.545 1754.29 432.081 1741.83 444.39C1729.37 456.694 1715.78 470.744 1701.94 485.019C1688.11 499.289 1674.02 513.783 1660.55 526.962C1609.18 577.242 1536.1 597.368 1471.9 605.414C1439.79 609.439 1409.86 610.446 1385.93 610.68C1373.97 610.796 1363.49 610.72 1355.01 610.73C1346.5 610.741 1340.03 610.839 1336.01 611.295C1247.27 621.368 1193.4 643.177 1153.61 677.739C1113.78 712.337 1087.94 759.79 1055.42 821.463C1030.38 868.936 952.764 992.86 916.505 1139.52C888.389 1253.32 805.244 1323.28 731.4 1374.67C694.415 1400.41 659.885 1421.41 635.539 1441.01C623.38 1450.8 613.854 1460.17 607.88 1469.51C601.92 1478.84 599.524 1488.09 601.522 1497.71V1497.71C603.173 1505.67 608.324 1512.8 616.521 1519.17C624.721 1525.53 635.911 1531.09 649.501 1535.9C676.681 1545.5 713.265 1552.04 754.209 1556.17C836.083 1564.43 935.159 1563.03 1010.74 1557.43L1030.57 1555.96C1235.47 1540.6 1440.79 1520.91 1581.77 1368.35C1622.15 1324.66 1649.42 1268.55 1673.68 1188.97C1697.93 1109.37 1719.14 1006.39 1747.43 868.986C1776.14 729.581 1791.77 613.745 1798.29 532.436C1801.55 491.777 1802.53 459.772 1801.74 437.778C1801.34 426.775 1800.5 418.317 1799.29 412.547C1798.68 409.656 1797.99 407.496 1797.25 406.041C1796.49 404.536 1795.8 404.037 1795.32 403.953ZM1706.66 528.051C1709.62 526.611 1712.3 525.885 1714.47 526.32H1714.47C1715.79 526.581 1716.8 527.65 1717.58 529.045C1718.39 530.47 1719.08 532.44 1719.67 534.889C1720.86 539.797 1721.71 546.852 1722.19 555.882C1723.14 573.956 1722.6 600.111 1720.19 633.204C1715.36 699.4 1703.02 793.446 1680.04 906.304C1657.43 1017.64 1640.18 1101.55 1620.27 1166.51C1600.36 1231.49 1577.76 1277.6 1544.41 1313.28L1544.41 1313.28C1425.89 1440.11 1252.21 1452.66 1081.56 1464.17L1081.56 1464.17C1020.53 1468.35 940.68 1469.1 874.607 1462.07C841.577 1458.56 811.934 1453.09 789.794 1445.12C778.724 1441.13 769.482 1436.49 762.623 1431.12C755.761 1425.75 751.228 1419.6 749.707 1412.58C747.888 1404.17 749.885 1396.16 754.743 1388.26C759.588 1380.39 767.302 1372.6 777.006 1364.57C796.387 1348.54 824.069 1331.29 853.414 1310.48C912.224 1268.78 978.19 1212.46 1000.62 1121.4L1001.31 1118.62C1030.8 1001.15 1092.73 902.033 1113.22 863.673C1139.58 813.96 1160.84 775.477 1193.47 747.292C1226.15 719.073 1270.13 701.249 1341.8 692.556L1342.47 692.48C1345.94 692.12 1351.1 692.011 1357.58 691.963C1364.52 691.911 1373.01 691.93 1382.7 691.794C1402.07 691.523 1426.2 690.638 1452.05 687.359C1503.78 680.799 1562.27 664.67 1603.42 624.858L1603.43 624.857C1614.32 614.342 1625.73 602.761 1636.95 591.343C1648.17 579.928 1659.2 568.674 1669.33 558.827C1679.46 548.985 1688.71 540.52 1696.37 534.696C1700.2 531.786 1703.66 529.509 1706.66 528.051ZM1714.08 528.281C1712.57 527.98 1710.4 528.456 1707.54 529.85C1704.71 531.225 1701.36 533.413 1697.58 536.288C1690.02 542.035 1680.84 550.429 1670.72 560.261C1660.61 570.088 1649.6 581.324 1638.38 592.744C1627.16 604.16 1615.73 615.76 1604.82 626.297L1604.81 626.296C1563.2 666.558 1504.18 682.763 1452.3 689.343C1426.34 692.634 1402.13 693.522 1382.73 693.794C1373.03 693.93 1364.51 693.912 1357.6 693.963C1351.09 694.011 1346.03 694.121 1342.68 694.469L1342.04 694.541C1270.6 703.207 1227.05 720.939 1194.78 748.806C1162.48 776.706 1141.38 814.84 1114.99 864.612L1114.98 864.615C1094.25 903.417 1031.69 1003.51 1002.56 1121.88C979.95 1213.68 913.457 1270.35 854.571 1312.11C825.068 1333.03 797.593 1350.14 778.28 1366.11C768.638 1374.09 761.121 1381.72 756.446 1389.31C751.787 1396.88 749.978 1404.37 751.662 1412.15H751.661C753.052 1418.58 757.229 1424.36 763.856 1429.55C770.486 1434.74 779.512 1439.28 790.472 1443.23C812.39 1451.13 841.85 1456.57 874.818 1460.08C940.741 1467.09 1020.47 1466.35 1081.42 1462.17H1081.42C1252.25 1450.66 1425.06 1438.08 1542.95 1311.92C1576 1276.55 1598.49 1230.76 1618.36 1165.93C1638.23 1101.08 1655.46 1017.27 1678.08 905.904C1701.05 793.117 1713.37 699.157 1718.19 633.06C1720.6 600.007 1721.14 573.943 1720.19 555.987C1719.71 547.002 1718.87 540.09 1717.73 535.359C1717.15 532.989 1716.51 531.222 1715.84 530.027C1715.15 528.803 1714.53 528.371 1714.08 528.282L1714.08 528.281ZM-204.667 269.789C-139.865 245.124 -66.8729 248.471 -7.16202 259.791C52.532 271.108 99.1324 290.429 111.206 297.891C194.947 349.649 238.382 390.066 275.723 422.534C313.023 454.967 344.22 479.449 403.572 499.523C442.893 512.822 480.126 503.294 515.651 482.052C551.201 460.794 584.929 427.869 617.159 394.559C649.345 361.294 680.061 327.614 709.476 305.058C738.64 282.693 766.865 270.998 794.203 281.865L794.85 282.127L795.835 282.542C816.501 291.452 834.61 312.574 849.934 342.821C865.515 373.575 878.293 413.911 887.963 460.861C907.304 554.769 914.243 675.3 906.203 798.957C898.164 922.614 875.142 1049.46 834.525 1155.97C793.917 1262.47 735.664 1348.8 657.066 1391.2C554.639 1446.46 437.088 1453.1 327.056 1435.62C217.021 1418.14 114.42 1376.52 41.8058 1335.15C-22.6959 1298.42 -122.548 1224.7 -211.472 1124.54C-300.392 1024.38 -378.452 897.697 -399.228 755.019C-412.142 666.283 -403.556 560.271 -371.752 468.817C-339.954 377.383 -284.877 300.315 -204.667 269.789ZM-7.53409 261.756C-66.6092 250.556 -138.512 247.232 -202.447 271.09L-203.956 271.658C-283.383 301.886 -338.161 378.312 -369.863 469.474C-401.559 560.616 -410.118 666.303 -397.249 754.73C-376.549 896.882 -298.751 1023.22 -209.975 1123.21C-121.203 1223.21 -21.5237 1296.78 42.796 1333.42C115.234 1374.68 217.608 1416.21 327.369 1433.64C437.133 1451.08 554.201 1444.43 656.115 1389.44C734.099 1347.37 792.119 1261.57 832.655 1155.26C873.182 1048.98 896.176 922.346 904.207 798.827C912.238 675.308 905.302 554.961 886.004 461.265C876.355 414.414 863.622 374.265 848.15 343.725C832.663 313.157 814.505 292.363 794.089 283.977C767.604 273.098 739.974 284.19 710.693 306.645C681.431 329.083 650.864 362.6 618.597 395.949C586.374 429.252 552.481 462.359 516.677 483.769C480.847 505.193 442.993 514.967 402.932 501.418C343.226 481.224 311.8 456.553 274.41 424.043C237.061 391.568 193.739 351.253 110.154 299.592C98.3627 292.305 52.0228 273.047 -7.53409 261.756ZM1626.99 651.78C1629.3 650.738 1631.44 650.225 1633.22 650.636C1634.38 650.9 1635.3 651.772 1636.04 652.925C1636.79 654.09 1637.44 655.671 1638 657.61C1639.13 661.494 1639.98 667.018 1640.53 674.035C1641.63 688.083 1641.54 708.303 1639.98 733.791C1636.86 784.777 1627.85 856.946 1610.64 943.193C1593.7 1028.5 1580.43 1093.24 1564.9 1143.46C1549.37 1193.68 1531.57 1229.47 1505.53 1256.84C1414.67 1352.34 1282.3 1361.53 1152.17 1368.87C1105.77 1371.62 1045.27 1371.75 995.148 1365.97C970.093 1363.09 947.574 1358.72 930.693 1352.45C922.253 1349.31 915.176 1345.69 909.89 1341.49C904.6 1337.3 901.051 1332.5 899.785 1327.01L899.784 1327.01C896.769 1313.9 905.355 1302.04 919.671 1289.67C934.031 1277.25 954.658 1263.91 976.529 1247.92C1020.39 1215.84 1069.71 1172.81 1086.61 1103.73L1087.13 1101.61C1109.44 1012.15 1156.63 936.63 1172.75 906.794C1193.12 869.051 1209.64 839.875 1234.71 818.36C1259.81 796.815 1293.39 783.025 1347.75 775.771L1348.29 775.704C1351.06 775.383 1355.1 775.251 1360.11 775.165C1365.49 775.073 1371.99 775.032 1379.43 774.877C1394.28 774.568 1412.69 773.802 1432.39 771.255C1471.81 766.158 1516.25 753.946 1547.65 724.147L1547.66 724.146C1556.01 716.264 1564.75 707.579 1573.35 699.02C1581.95 690.464 1590.41 682.031 1598.18 674.668C1605.95 667.31 1613.07 660.991 1618.99 656.676C1621.95 654.519 1624.64 652.838 1626.99 651.78ZM1632.77 652.585C1631.65 652.325 1630.01 652.612 1627.81 653.604C1625.64 654.581 1623.08 656.173 1620.17 658.292C1614.36 662.528 1607.32 668.773 1599.56 676.12C1591.8 683.462 1583.37 691.876 1574.76 700.438C1566.17 708.994 1557.41 717.696 1549.03 725.6C1517.16 755.836 1472.21 768.123 1432.64 773.238C1412.85 775.798 1394.36 776.567 1379.47 776.877C1372.05 777.032 1365.48 777.072 1360.14 777.164C1354.77 777.256 1350.66 777.401 1348.01 777.753C1293.88 784.978 1260.72 798.674 1236.01 819.878C1211.27 841.113 1194.91 869.951 1174.51 907.744V907.745C1158.19 937.946 1110.56 1014.13 1088.55 1104.2V1104.21C1071.47 1174.01 1021.64 1217.4 977.71 1249.53C955.688 1265.63 935.261 1278.83 920.979 1291.18C906.652 1303.57 899.004 1314.69 901.734 1326.56L901.846 1327.02C903.069 1331.75 906.231 1336.04 911.133 1339.93C916.195 1343.94 923.06 1347.48 931.39 1350.58C948.049 1356.76 970.384 1361.11 995.377 1363.98C1045.35 1369.74 1105.73 1369.62 1152.05 1366.88H1152.06C1282.35 1359.53 1413.85 1350.3 1504.08 1255.46C1529.82 1228.41 1547.5 1192.95 1562.99 1142.86C1578.48 1092.77 1591.74 1028.14 1608.68 942.804V942.803C1625.87 856.627 1634.87 784.548 1637.98 733.669C1639.54 708.225 1639.62 688.108 1638.54 674.191C1637.99 667.226 1637.15 661.86 1636.08 658.169C1635.54 656.321 1634.96 654.944 1634.36 654.007C1633.75 653.057 1633.2 652.683 1632.77 652.586L1632.77 652.585ZM-103.962 405.569C-52.0922 384.964 6.54005 386.763 54.5743 395.05C102.598 403.335 140.192 418.135 150.057 423.693H150.058C218.64 462.343 253.834 494.025 283.916 519.876C313.955 545.69 338.854 565.652 386.934 581.062H386.936C418.698 591.331 448.75 583.6 477.464 566.558C506.203 549.501 533.497 523.178 559.67 496.44C585.8 469.746 610.836 442.61 634.95 424.13C659.046 405.665 682.539 395.592 705.524 403.57C724.613 410.199 742.007 427.188 757.359 451.9C772.721 476.632 786.11 509.215 797.14 547.232C819.2 623.272 831.863 721.206 831.92 821.943C831.978 922.68 819.43 1026.28 791.027 1113.65C762.632 1200.99 718.34 1272.26 654.795 1308.09L654.792 1308.09C572.19 1354.26 474.361 1361.29 380.844 1348.69C287.32 1336.08 198.011 1303.83 132.353 1271.32C73.5339 1242.21 -14.1527 1183.11 -91.9179 1102.07C-169.68 1021.04 -237.599 917.981 -256.728 800.94C-268.485 729.005 -262.42 642.987 -237.39 568.563C-212.366 494.159 -168.317 431.158 -103.962 405.569ZM54.2345 397.021C6.37025 388.763 -51.8412 387.016 -103.224 407.428C-166.804 432.709 -210.561 495.071 -235.493 569.201C-260.418 643.312 -266.46 728.999 -254.755 800.617C-235.715 917.111 -168.081 1019.81 -90.4745 1100.69C-12.8713 1181.56 74.6268 1240.52 133.24 1269.53C198.746 1301.97 287.845 1334.14 381.11 1346.7C473.654 1359.17 570.205 1352.34 651.889 1307.42L653.816 1306.35C716.726 1270.87 760.798 1200.16 789.125 1113.03C817.445 1025.92 829.977 922.536 829.92 821.944C829.863 721.353 817.216 623.612 795.219 547.789C784.22 509.876 770.893 477.48 755.659 452.956C740.414 428.414 723.33 411.871 704.867 405.46V405.459C682.896 397.832 660.153 407.337 636.167 425.718C612.2 444.085 587.309 471.063 561.1 497.839C534.933 524.57 507.475 551.071 478.484 568.277C449.47 585.498 418.813 593.469 386.323 582.967L384.068 582.235C337.078 566.803 312.254 546.865 282.612 521.393C252.543 495.553 217.475 463.982 149.075 425.436C139.468 420.022 102.109 405.28 54.2345 397.021ZM1547.24 775.481C1548.91 774.83 1550.51 774.536 1551.88 774.912H1551.88C1552.86 775.179 1553.69 775.848 1554.39 776.748C1555.08 777.65 1555.7 778.842 1556.23 780.275C1557.31 783.142 1558.17 787.14 1558.79 792.149C1560.04 802.181 1560.4 816.471 1559.69 834.353C1558.27 870.128 1552.58 920.41 1541.13 980.036C1529.87 1039.33 1520.57 1084.89 1509.42 1120.36C1498.45 1155.29 1485.67 1180.51 1467.39 1199.47L1466.52 1200.37C1403.37 1264.57 1312.23 1270.06 1222.67 1273.54H1222.67C1190.9 1274.75 1149.75 1274.23 1115.57 1269.74C1098.49 1267.49 1083.1 1264.24 1071.48 1259.7C1059.94 1255.18 1051.79 1249.25 1049.78 1241.41L1049.78 1241.41C1047.37 1232.03 1052.9 1223.51 1062.21 1214.73C1071.55 1205.93 1085.12 1196.49 1099.52 1185.31C1128.43 1162.86 1161.12 1133.11 1172.51 1086.01C1187.46 1023.91 1220.26 971.32 1232.16 949.854C1246.47 924.038 1258.25 904.128 1275.78 889.275C1293.33 874.397 1316.55 864.663 1353.59 858.942L1354.41 858.827C1358.73 858.281 1366.42 858.198 1376.04 857.855C1386.36 857.488 1399.04 856.823 1412.57 854.998C1439.67 851.343 1470.05 843.053 1491.78 823.327L1491.78 823.325C1497.59 818.071 1503.66 812.291 1509.64 806.602C1515.62 800.917 1521.5 795.321 1526.93 790.456C1532.34 785.596 1537.33 781.435 1541.52 778.631C1543.61 777.23 1545.53 776.143 1547.24 775.481ZM1551.35 776.841C1550.6 776.635 1549.49 776.75 1547.96 777.346C1546.45 777.932 1544.66 778.93 1542.63 780.292C1538.57 783.015 1533.67 787.098 1528.26 791.945C1522.86 796.787 1517 802.36 1511.02 808.05C1505.05 813.735 1498.96 819.534 1493.12 824.809C1470.94 844.945 1440.07 853.308 1412.84 856.98C1399.21 858.819 1386.45 859.485 1376.11 859.854C1365.7 860.224 1357.87 860.292 1353.9 860.918L1353.89 860.919C1317.07 866.607 1294.24 876.243 1277.07 890.801C1259.86 905.384 1248.23 924.974 1233.91 950.823C1221.95 972.392 1189.32 1024.7 1174.45 1086.48V1086.48C1162.89 1134.28 1129.72 1164.39 1100.75 1186.89C1086.21 1198.18 1072.83 1207.47 1063.58 1216.19C1054.31 1224.93 1049.61 1232.71 1051.71 1240.92L1051.8 1241.24C1053.69 1247.9 1060.92 1253.42 1072.21 1257.83C1083.61 1262.3 1098.82 1265.52 1115.84 1267.75C1149.86 1272.23 1190.89 1272.75 1222.59 1271.55L1231.01 1271.21C1317.91 1267.65 1404.54 1260.53 1465.09 1198.96L1465.95 1198.08C1483.93 1179.44 1496.59 1154.54 1507.52 1119.76C1518.62 1084.42 1527.9 1038.97 1539.16 979.66L1539.17 979.658C1550.6 920.107 1556.28 869.927 1557.69 834.273C1558.4 816.441 1558.04 802.274 1556.81 792.397C1556.19 787.453 1555.36 783.632 1554.36 780.979C1553.86 779.653 1553.34 778.66 1552.8 777.972C1552.27 777.283 1551.78 776.957 1551.35 776.842L1551.35 776.841ZM556.479 544.371C575.226 530.039 593.664 521.72 611.898 526.57C629.135 531.165 645.599 543.835 660.833 562.552C676.075 581.279 690.15 606.137 702.591 635.257C727.474 693.499 745.881 768.923 753.999 846.799C762.117 924.673 759.954 1005.07 743.651 1073.24C727.354 1141.39 696.883 1197.49 648.247 1226.54C585.64 1263.91 507.508 1271.35 430.454 1263.57C353.387 1255.78 277.283 1232.74 218.624 1209.04C165.5 1187.59 90.0255 1143.12 23.4493 1081.21C-43.1222 1019.31 -100.888 939.871 -118.419 848.441C-128.993 793.311 -125.457 727.282 -107.214 669.894C-88.9769 612.526 -55.9768 563.605 -7.46866 542.99C31.4444 526.447 75.6856 526.683 112.033 531.929C148.381 537.175 176.975 547.452 184.68 551.133H184.681C237.927 576.588 264.905 599.443 287.796 618.644C310.641 637.806 329.343 653.263 366.129 664.157H366.13C390.344 671.348 413.26 665.333 435.214 652.412C457.191 639.478 478.104 619.683 498.249 599.479C518.353 579.315 537.714 558.717 556.479 544.371ZM611.382 528.502C594.098 523.905 576.336 531.708 557.693 545.96C539.068 560.199 519.846 580.649 499.665 600.891C479.526 621.09 458.452 641.057 436.229 654.136C413.983 667.228 390.485 673.475 365.562 666.074V666.075C328.364 655.059 309.401 639.377 286.511 620.177C263.666 601.015 236.839 578.285 183.818 552.938C176.321 549.356 147.926 539.13 111.748 533.908C76.1348 528.768 33.1148 528.498 -4.88077 544.076L-6.68643 544.83C-54.4355 565.122 -87.1578 613.406 -105.308 670.5C-123.451 727.573 -126.966 793.264 -116.455 848.064C-99.0342 938.919 -41.5913 1018 24.8116 1079.75C91.2098 1141.49 166.476 1185.82 219.373 1207.19C277.912 1230.84 353.828 1253.81 430.655 1261.58C507.496 1269.34 585.133 1261.89 647.222 1224.82L648.343 1224.14C695.663 1195.31 725.593 1140.16 741.707 1072.77C757.943 1004.88 760.112 924.726 752.01 847.006C743.908 769.287 725.541 694.065 700.752 636.043C688.357 607.031 674.37 582.351 659.282 563.814C644.187 545.267 628.053 532.947 611.382 528.503V528.502ZM472.353 669.773C485.724 659.651 498.998 653.305 512.256 655.432L512.985 655.552C543.888 660.842 575.195 688.782 602.719 728.779C630.498 769.148 654.578 822.022 670.639 877.035C686.698 932.045 694.759 989.263 690.44 1038.32C686.122 1087.36 669.412 1128.43 635.734 1150.84C593.036 1179.25 534.572 1187.13 474.003 1184.22C413.408 1181.31 350.555 1167.59 298.948 1152.65C251.463 1138.9 188.23 1109.11 132.863 1066.33C77.5056 1023.56 29.8975 967.712 13.8653 901.824C4.54672 863.545 5.55203 817.514 16.9874 777.151C28.4168 736.81 50.3258 701.939 82.9854 686.259C108.968 673.788 138.638 672.936 163.196 675.371C175.486 676.59 186.521 678.635 195.208 680.476C199.55 681.395 203.31 682.265 206.338 682.953C209.386 683.646 211.653 684.145 213.062 684.343L213.239 684.368L213.397 684.453C247.971 703.052 266.684 717.102 283.105 728.037C299.488 738.948 313.63 746.794 339.193 753.119C355.871 757.241 371.72 752.837 386.998 743.903C402.293 734.96 416.919 721.532 431.101 707.756C445.244 694.016 458.967 679.907 472.353 669.773ZM511.94 657.406C499.528 655.415 486.832 661.321 473.561 671.368C460.304 681.404 446.711 695.38 432.494 709.19C418.316 722.964 403.535 736.55 388.007 745.63C372.461 754.72 356.069 759.35 338.714 755.061H338.713C312.869 748.666 298.516 740.703 281.996 729.701C265.537 718.74 246.97 704.796 212.6 686.295C211.084 686.068 208.79 685.563 205.895 684.904C202.858 684.214 199.117 683.348 194.793 682.432C186.147 680.6 175.19 678.57 162.999 677.361C138.596 674.941 109.354 675.821 83.8507 688.062C51.9203 703.392 30.2627 737.63 18.9112 777.697C7.56592 817.743 6.57537 863.421 15.8087 901.351C31.6905 966.621 78.9111 1022.11 134.086 1064.75C189.252 1107.37 252.258 1137.05 299.505 1150.73C351.027 1165.64 413.716 1179.32 474.099 1182.22C534.507 1185.12 592.455 1177.23 634.626 1149.17C667.578 1127.25 684.154 1086.9 688.446 1038.15C692.737 989.407 684.732 932.447 668.719 877.596C652.707 822.748 628.709 770.076 601.071 729.913C573.395 689.694 542.224 662.241 511.941 657.406H511.94ZM1467.31 898.767C1468.3 898.519 1469.28 898.448 1470.16 898.703L1470.33 898.759L1470.34 898.76C1471.9 899.305 1473.17 900.663 1474.19 902.51C1475.22 904.371 1476.08 906.854 1476.78 909.871C1478.18 915.911 1478.97 924.279 1479.11 934.552C1479.37 954.468 1477.15 981.706 1471.91 1013.41L1471.4 1016.49C1465.74 1049.76 1460.43 1076.16 1453.7 1096.89C1446.96 1117.64 1438.76 1132.8 1427.28 1143.54L1427.28 1143.54C1391.97 1176.51 1341.94 1178.43 1292.96 1177.74C1275.83 1177.49 1254.03 1176.34 1235.8 1173.1C1226.69 1171.48 1218.42 1169.34 1212.07 1166.5C1205.76 1163.68 1201.09 1160.07 1199.59 1155.39L1199.59 1155.39C1197.8 1149.78 1200.19 1144.61 1204.52 1139.4C1208.85 1134.19 1215.35 1128.65 1222.3 1122.28C1236.26 1109.46 1252.35 1092.99 1258.21 1067.84C1266.05 1034.05 1283.83 1005.34 1291.41 992.475C1299.61 978.519 1306.66 967.761 1316.65 959.527C1326.65 951.277 1339.51 945.624 1359.23 941.682H1359.23C1361.99 941.13 1366.71 940.862 1372.47 940.461C1378.27 940.057 1385.23 939.514 1392.62 938.424C1407.41 936.239 1423.75 931.873 1435.75 922.149L1436.97 921.153C1443.1 916.115 1449.74 910.271 1455.46 905.854C1458.53 903.49 1461.39 901.481 1463.86 900.178C1465.09 899.526 1466.25 899.033 1467.31 898.767ZM1469.52 900.603C1469.11 900.506 1468.55 900.519 1467.8 900.707C1466.95 900.92 1465.94 901.335 1464.79 901.945C1462.48 903.166 1459.73 905.091 1456.68 907.438C1450.58 912.149 1443.6 918.35 1437.01 923.702L1437.01 923.703C1424.58 933.771 1407.81 938.202 1392.91 940.402C1385.44 941.504 1378.42 942.051 1372.6 942.456C1366.74 942.864 1362.22 943.124 1359.62 943.643C1340.1 947.545 1327.59 953.098 1317.92 961.07C1308.84 968.56 1302.2 978.239 1294.65 990.914L1293.13 993.489C1285.53 1006.4 1267.91 1034.85 1260.16 1068.3V1068.3C1254.15 1094.07 1237.66 1110.89 1223.65 1123.75C1216.61 1130.22 1210.27 1135.61 1206.06 1140.68C1201.86 1145.73 1200.03 1150.18 1201.49 1154.78C1202.72 1158.61 1206.69 1161.91 1212.88 1164.67C1219.02 1167.41 1227.11 1169.53 1236.15 1171.13C1254.22 1174.34 1275.9 1175.49 1292.99 1175.74L1297.59 1175.79C1345.13 1176.28 1392.35 1173.42 1425.91 1142.08C1437.05 1131.67 1445.11 1116.86 1451.79 1096.28C1458.48 1075.69 1463.77 1049.42 1469.43 1016.16C1475.02 983.217 1477.38 954.982 1477.11 934.578C1476.97 924.37 1476.18 916.163 1474.83 910.322C1474.15 907.399 1473.35 905.115 1472.44 903.479C1471.53 901.831 1470.58 900.964 1469.68 900.65L1469.52 900.603ZM404.446 785.221C431.338 775.801 462.619 785.55 493.092 806.106C523.599 826.686 553.508 858.232 577.787 892.854C602.065 927.473 620.765 965.242 628.797 998.307C636.811 1031.3 634.28 1059.99 615.493 1075.95C592.684 1095.33 553.836 1103.71 509.772 1105.73C465.648 1107.75 416.055 1103.4 371.534 1097.1C329.662 1091.18 278.824 1076.12 234.748 1052.48C190.696 1028.85 153.241 996.565 138.394 956.119L138.393 956.118C130.528 934.637 128.964 908.635 133.515 885.325C138.061 862.037 148.751 841.252 165.582 830.422V830.421C178.583 822.058 193.811 819.785 206.647 819.234C213.067 818.959 218.93 819.114 223.616 819.166C225.968 819.192 228.011 819.191 229.697 819.102C231.405 819.011 232.652 818.831 233.457 818.542L233.821 818.412L234.179 818.56C270.601 833.667 275.707 839.415 304.437 842.923C322.859 845.174 340.393 833.581 357.174 819.818C361.352 816.391 365.464 812.849 369.52 809.372C373.571 805.899 377.567 802.492 381.497 799.354C389.341 793.09 397.005 787.827 404.446 785.221ZM491.974 807.765C461.688 787.334 431.103 778.003 405.108 787.108C398.004 789.596 390.561 794.676 382.745 800.917C378.846 804.031 374.874 807.416 370.821 810.891C366.772 814.361 362.642 817.921 358.443 821.365C341.974 834.871 324.127 846.892 305.102 845.008L304.194 844.908C275.196 841.367 269.597 835.44 233.75 820.548C232.698 820.858 231.346 821.017 229.804 821.099C228.047 821.192 225.946 821.192 223.594 821.166C218.872 821.114 213.084 820.96 206.733 821.232C194.024 821.777 179.221 824.026 166.664 832.104C150.471 842.523 139.969 862.7 135.478 885.708C130.99 908.695 132.543 934.324 140.271 955.43L140.617 956.36C155.449 995.703 192.163 1027.37 235.693 1050.71C279.543 1074.23 330.152 1089.23 371.815 1095.12L375.997 1095.7C419.362 1101.67 467.105 1105.68 509.68 1103.73C553.687 1101.71 591.934 1093.34 614.198 1074.42L615.025 1073.7C632.151 1058.38 634.703 1031.09 626.854 998.779C618.898 966.025 600.331 928.483 576.15 894.001C551.969 859.521 522.226 828.172 491.974 807.765ZM1377 1018.62C1381.65 1018.02 1386.1 1018.47 1389.65 1020.26H1389.65C1394.37 1022.65 1397.66 1027.5 1399.72 1033.34C1401.78 1039.2 1402.65 1046.2 1402.44 1053.09C1402.24 1059.99 1400.96 1066.86 1398.66 1072.47C1396.45 1077.88 1393.24 1082.27 1388.99 1084.26L1388.58 1084.45C1384.83 1086.04 1380.01 1085.91 1375.04 1084.58C1370.04 1083.23 1364.78 1080.64 1360.05 1077.14C1350.65 1070.18 1343.14 1059.41 1344.6 1047.45L1344.66 1046.96C1346.13 1036.66 1353.9 1028.33 1362.86 1023.4C1367.43 1020.88 1372.35 1019.22 1377 1018.62ZM1388.75 1022.05C1385.66 1020.49 1381.65 1020.03 1377.26 1020.6C1372.88 1021.17 1368.19 1022.74 1363.83 1025.15C1355.19 1029.9 1347.99 1037.78 1346.64 1047.24L1346.59 1047.69C1345.25 1058.63 1352.12 1068.78 1361.24 1075.54C1365.79 1078.9 1370.83 1081.37 1375.55 1082.64C1380.3 1083.92 1384.62 1083.95 1387.8 1082.6L1388.15 1082.45C1391.73 1080.76 1394.68 1076.92 1396.81 1071.71C1399 1066.37 1400.24 1059.74 1400.44 1053.03C1400.64 1046.32 1399.79 1039.59 1397.83 1034.01C1395.86 1028.41 1392.83 1024.11 1388.75 1022.05L1388.75 1022.05ZM289.649 909.429C314.022 899.221 345.598 897.122 378.978 900.236C412.377 903.353 447.68 911.699 479.573 922.475C511.461 933.249 539.988 946.467 559.821 959.353C569.732 965.791 577.523 972.18 582.473 978.178C587.392 984.138 589.688 989.95 588.043 995.112C587.216 997.709 585.371 1000.18 582.737 1002.51C580.099 1004.86 576.619 1007.11 572.431 1009.27C564.055 1013.58 552.73 1017.57 539.344 1021.09C512.563 1028.15 477.376 1033.41 440.64 1035.73C403.903 1038.06 365.572 1037.46 332.509 1032.77C299.497 1028.09 271.541 1019.32 255.738 1005.15C240.267 991.276 237.041 972.167 243.565 954.133C250.076 936.133 266.279 919.214 289.649 909.429ZM378.792 902.228C345.559 899.126 314.361 901.247 290.421 911.273C267.484 920.877 251.738 937.419 245.445 954.813C239.165 972.174 242.279 990.395 257.073 1003.66V1003.66C272.406 1017.41 299.844 1026.12 332.789 1030.79C365.682 1035.45 403.87 1036.06 440.513 1033.74C477.156 1031.42 512.21 1026.17 538.834 1019.16C552.15 1015.65 563.32 1011.71 571.515 1007.49C575.612 1005.38 578.937 1003.21 581.409 1001.02C583.887 998.82 585.458 996.639 586.138 994.505C587.463 990.346 585.725 985.262 580.93 979.451C576.165 973.678 568.564 967.418 558.732 961.029C539.079 948.261 510.716 935.107 478.934 924.369C447.156 913.633 412.006 905.327 378.792 902.228ZM896.568 -391.264C935.546 -446.928 1007.62 -493.853 1079.22 -492.365C1128.47 -491.342 1162.67 -467.688 1205.62 -418.34C1227.08 -393.675 1250.78 -362.542 1279.65 -324.544C1308.53 -286.537 1342.61 -241.638 1384.88 -189.4C1440.3 -120.892 1487.93 -66.7946 1528.28 -21.9111C1568.62 22.9614 1601.72 58.6596 1628.05 90.3243C1680.74 153.703 1706.43 201.098 1709.06 274.05L1709.16 276.886C1709.68 292.344 1710.33 326.669 1702.53 365.74C1694.21 407.41 1676.24 454.57 1638.12 489.996C1588.61 535.997 1533.58 535.741 1471.07 533.458C1408.53 531.174 1338.35 526.843 1257.85 564.139C1172.38 603.739 1117.99 670.487 1079.4 725.222C1060.14 752.539 1044.74 776.981 1031.44 793.403C1024.79 801.621 1018.58 807.935 1012.59 811.628C1006.56 815.343 1000.66 816.454 994.749 814.079C986.703 810.846 982.765 802.821 980.841 790.323C978.913 777.803 978.947 760.401 979.193 737.86C979.687 692.725 981.044 626.604 969.469 536.461C953.854 414.864 944.885 352.12 895.746 299.424C863.513 264.85 828.458 250.125 799.734 237.542C771.119 225.006 748.386 214.473 741.934 188.027C735.92 163.393 748.848 144.713 768.495 122.677C788.205 100.571 814.862 74.8958 837.321 35.9932C883.621 -44.2119 875.64 -117.595 867.289 -187.542C858.944 -257.439 850.196 -324.031 895.654 -389.947L896.568 -391.264ZM1079.17 -490.365C1007.85 -491.847 935.779 -444.646 897.301 -388.812C852.331 -323.604 860.918 -257.778 869.276 -187.778C877.627 -117.829 885.714 -43.8374 839.053 36.9932C816.46 76.1263 789.596 102.017 769.988 124.008C750.318 146.069 738.131 164.02 743.876 187.554C750.057 212.886 771.72 223.086 800.537 235.71C829.246 248.287 864.662 263.149 897.209 298.06L898.365 299.31C947.012 352.312 955.983 415.737 971.453 536.207C983.048 626.499 981.687 692.742 981.193 737.883C980.947 760.48 980.921 777.695 982.818 790.019C984.719 802.365 988.492 809.41 995.495 812.224C1000.65 814.295 1005.88 813.414 1011.54 809.926C1017.24 806.416 1023.27 800.318 1029.89 792.145C1043.14 775.785 1058.41 751.527 1077.77 724.069C1116.42 669.253 1171.06 602.15 1257.01 562.324C1338 524.801 1408.64 529.177 1471.14 531.46C1533.68 533.744 1587.91 533.914 1636.76 488.531C1674.46 453.497 1692.29 406.792 1700.57 365.349C1708.85 323.913 1707.55 287.83 1707.06 274.122C1704.46 201.784 1679.05 154.803 1626.51 91.6026C1600.22 59.9775 1567.17 24.3348 1526.79 -20.5742C1486.43 -65.4721 1438.78 -119.598 1383.32 -188.143C1341.04 -240.406 1306.94 -285.328 1278.06 -323.334C1249.17 -361.349 1225.52 -392.423 1204.11 -417.027C1161.3 -466.218 1127.59 -489.36 1079.17 -490.365ZM967.817 -293.074C1000.05 -337.075 1058.43 -375.153 1116.63 -372.918C1156.63 -371.377 1184.24 -351.468 1218.56 -311.009C1235.72 -290.787 1254.6 -265.382 1277.56 -234.506C1300.52 -203.621 1327.6 -167.238 1361.17 -125.02C1405.24 -69.7308 1443.09 -25.9801 1475.09 10.3858C1507.08 46.7412 1533.25 75.7488 1553.92 101.511C1595.31 153.087 1614.81 191.814 1615.15 250.881C1615.22 262.087 1615.81 291.364 1608.66 324.945C1601.51 358.522 1586.6 396.496 1555.6 425.043L1555.6 425.044C1515.06 462.228 1470.13 462.343 1419.3 460.723C1368.43 459.101 1311.51 455.726 1246.34 485.399C1176.52 517.2 1131.42 570.147 1098.96 613.171C1082.76 634.639 1069.64 653.739 1058.21 666.376C1052.49 672.7 1047.12 677.499 1041.91 680.18C1036.66 682.882 1031.53 683.454 1026.41 681.229H1026.41C1019.42 678.174 1015.76 671.257 1013.76 660.745C1011.76 650.226 1011.36 635.789 1011.15 617.249C1010.72 580.118 1011.04 526.173 1000.98 453.022C987.282 353.36 979.258 300.74 939.987 256.821C914.388 228.208 886.669 215.628 864.192 204.907C841.812 194.234 824.233 185.266 820.066 163.66C816.186 143.541 827.76 128.375 844.751 110.713C861.818 92.9728 884.56 72.5179 904.05 41.586C944.098 -22.2049 941.284 -79.9615 937.771 -134.771C934.287 -189.124 930.087 -240.717 966.939 -291.865L967.817 -293.074ZM1116.55 -370.92C1059.2 -373.122 1001.4 -335.531 969.43 -291.892H969.429C932.121 -241.013 936.25 -189.772 939.767 -134.899C943.282 -80.0558 946.158 -21.7225 905.743 42.6514L905.742 42.6524C886.111 73.8083 863.156 94.4671 846.193 112.1C829.154 129.81 818.365 144.276 822.029 163.281C825.977 183.748 842.493 192.342 865.053 203.102C887.515 213.815 915.581 226.54 941.479 255.487C981.236 299.949 989.287 353.259 1002.96 452.749C1013.04 526.042 1012.72 580.106 1013.15 617.226C1013.36 635.811 1013.77 650.06 1015.73 660.371C1017.69 670.688 1021.15 676.746 1027.21 679.396H1027.21C1031.66 681.329 1036.15 680.894 1041 678.401C1045.88 675.888 1051.06 671.304 1056.73 665.035C1068.08 652.485 1081.07 633.556 1097.36 611.966C1129.87 568.874 1175.22 515.594 1245.51 483.58V483.579C1311.17 453.686 1368.54 457.104 1419.36 458.724C1470.22 460.345 1514.36 460.151 1554.24 423.571C1584.83 395.41 1599.6 357.881 1606.71 324.528C1613.81 291.181 1613.22 262.1 1613.15 250.893C1612.81 192.442 1593.6 154.141 1552.36 102.763C1531.72 77.0474 1505.6 48.0953 1473.59 11.7071C1441.58 -24.6707 1403.71 -68.4483 1359.61 -123.773L1359.61 -123.774C1326.01 -166.02 1298.92 -202.427 1275.95 -233.312C1252.98 -264.207 1234.14 -289.553 1217.04 -309.715C1182.84 -350.023 1155.71 -369.412 1116.55 -370.92ZM1039.81 -196.226C1065.5 -227.953 1109.64 -256.459 1153.87 -253.481C1184.64 -251.414 1205.66 -235.25 1231.36 -203.685C1244.2 -187.909 1258.26 -168.233 1275.31 -144.481C1292.36 -120.721 1312.43 -92.8552 1337.31 -60.6591H1337.31C1370.03 -18.5874 1398.09 14.8193 1421.73 42.671C1445.36 70.5131 1464.59 92.834 1479.61 112.697C1494.64 132.567 1505.5 150.032 1512.36 168.185C1519.01 185.784 1521.88 203.987 1521.21 225.604L1521.14 227.707C1520.77 236.426 1520.68 258.734 1514.71 284.22C1508.75 309.704 1496.9 338.466 1472.97 360.081H1472.96C1441.47 388.519 1406.62 389.004 1367.44 388.026C1328.22 387.048 1284.53 384.593 1234.72 406.651C1180.52 430.65 1144.7 469.8 1118.36 501.117C1105.23 516.739 1094.37 530.502 1084.8 539.354C1075.28 548.165 1066.58 552.525 1057.89 548.353L1057.89 548.352C1051.96 545.482 1048.58 539.689 1046.5 531.164C1044.42 522.648 1043.59 511.175 1042.91 496.633C1041.56 467.5 1040.84 425.733 1032.33 369.575C1020.54 291.841 1013.47 249.355 984.042 214.197C965.078 191.543 944.698 181.115 928.471 172.258C912.324 163.445 899.915 156.029 898.051 139.251L897.978 138.523C896.628 123.293 906.778 111.828 920.898 98.7589C935.336 85.3954 954.171 70.1548 970.646 47.1524V47.1514C1004.54 -0.169098 1006.89 -42.292 1008.18 -81.9658C1009.48 -121.64 1009.7 -159.024 1039.81 -196.226ZM1153.74 -251.486C1110.39 -254.404 1066.82 -226.403 1041.37 -194.967C1011.74 -158.357 1011.48 -121.651 1010.18 -81.9003C1008.88 -42.1488 1006.53 0.488041 972.272 48.3165C955.644 71.5322 936.59 86.9592 922.256 100.227C908.053 113.373 898.714 124.211 899.97 138.353L900.038 139.029C901.772 154.639 913.145 161.614 929.43 170.503C945.635 179.348 966.338 189.933 985.576 212.914C1015.43 248.586 1022.54 291.701 1034.3 369.275L1034.7 371.903C1042.86 426.866 1043.58 467.903 1044.91 496.54C1045.59 511.11 1046.42 522.391 1048.44 530.69C1050.47 538.979 1053.62 544.062 1058.75 546.55H1058.76C1066.2 550.122 1073.96 546.664 1083.45 537.886C1092.89 529.147 1103.61 515.549 1116.83 499.83C1143.21 468.466 1179.27 429.015 1233.91 404.822L1236.26 403.797C1285.57 382.634 1328.94 385.065 1367.49 386.026C1406.68 387.004 1440.77 386.452 1471.63 358.597L1472.72 357.596C1495.51 336.471 1506.94 308.634 1512.76 283.764C1518.68 258.5 1518.77 236.4 1519.14 227.624L1519.21 225.544C1519.88 204.155 1517.03 186.217 1510.49 168.892C1503.72 150.994 1492.99 133.703 1478.02 113.903C1463.04 94.0975 1443.86 71.834 1420.21 43.9649C1396.56 16.1054 1368.48 -17.3263 1335.73 -59.4316L1335.73 -59.4335C1310.82 -91.6608 1290.74 -119.552 1273.68 -143.315C1256.62 -167.088 1242.6 -186.704 1229.81 -202.422C1204.22 -233.844 1183.67 -249.475 1153.74 -251.486ZM846.109 -559.445C850.467 -560.022 854.061 -560.161 856.789 -559.805C859.382 -559.466 861.457 -558.642 862.494 -557.028L862.592 -556.87L862.593 -556.868C863.068 -556.048 863.202 -555.166 863.023 -554.259C862.849 -553.382 862.392 -552.529 861.766 -551.694C860.522 -550.037 858.424 -548.217 855.742 -546.157C853.044 -544.085 849.662 -541.703 845.794 -538.937C841.918 -536.166 837.534 -532.994 832.799 -529.322C813.868 -514.641 789.317 -491.947 769.568 -455.03C726.668 -374.833 742.365 -294.652 756.702 -214.359C770.911 -134.786 783.773 -55.1246 735.93 23.9434L734.788 25.8116C723.244 44.5086 716.128 50.4527 708.012 57.6026C699.994 64.6663 690.938 72.9623 675.359 96.4444C633.039 160.23 622.943 214.973 614.344 262.141C605.748 309.291 598.63 349.096 561.982 382.415C532.881 408.875 497.738 419.829 468.885 424.051C441.832 428.009 420.245 426.057 414.214 425.372L413.218 425.255C372.066 420.145 341.088 401.153 312.698 375.68C298.511 362.95 284.959 348.59 271.109 333.532C257.251 318.465 243.098 302.703 227.671 287.117C141.609 200.174 62.4482 165.776 2.24326 143.446C-27.8248 132.295 -53.3235 124.103 -72.5116 113.87C-91.4582 103.766 -104.445 91.5772 -109.75 72.4063L-109.997 71.4883C-116.922 45.021 -107.05 14.7184 -84.789 -17.8271C-62.5109 -50.3974 -27.7043 -85.3961 15.6085 -121.348C102.242 -193.257 223.086 -269.126 346.348 -337.161C469.618 -405.201 595.35 -465.43 691.785 -506.056C740 -526.367 780.913 -541.786 810.542 -550.831C825.35 -555.351 837.379 -558.291 846.109 -559.445ZM856.53 -557.821C854.055 -558.145 850.66 -558.03 846.371 -557.463C837.806 -556.33 825.899 -553.428 811.125 -548.918C781.59 -539.902 740.75 -524.512 692.563 -504.212C596.194 -463.615 470.525 -403.417 347.315 -335.41C224.096 -267.399 103.378 -191.601 16.8858 -119.809C-26.364 -83.9092 -61.0112 -49.0473 -83.1386 -16.6972C-105.283 15.6774 -114.768 45.3563 -108.062 70.9825L-108.061 70.9835C-103.113 89.9464 -90.5407 101.989 -71.5702 112.106C-52.5405 122.254 -27.2732 130.366 2.93857 141.571C63.2935 163.956 142.749 198.483 229.092 285.71C244.553 301.33 258.744 317.134 272.581 332.178C286.427 347.231 299.924 361.529 314.034 374.19C342.24 399.499 372.853 418.226 413.464 423.27L414.441 423.385C420.371 424.058 441.772 425.997 468.596 422.072C497.212 417.886 531.928 407.037 560.636 380.935C596.716 348.132 603.767 309.009 612.377 261.781C620.984 214.57 631.134 159.483 673.693 95.3389C689.378 71.6951 698.555 63.2691 706.69 56.1026C714.727 49.0223 721.684 43.2265 733.086 24.7608C781.826 -54.1957 769.065 -133.749 754.734 -214.008C740.419 -294.174 724.526 -375.067 767.806 -455.974C787.728 -493.214 812.501 -516.112 831.573 -530.903C836.339 -534.599 840.748 -537.788 844.63 -540.564C848.521 -543.346 851.862 -545.698 854.525 -547.743C857.203 -549.8 859.102 -551.477 860.166 -552.894C860.694 -553.597 860.968 -554.174 861.062 -554.647C861.149 -555.089 861.088 -555.475 860.863 -555.864V-555.863C860.352 -556.741 859.058 -557.491 856.53 -557.821ZM1111.67 -99.4667C1130.7 -118.835 1160.72 -137.785 1190.97 -134.109V-134.108C1212.53 -131.486 1226.87 -119.002 1243.89 -96.3095C1252.4 -84.9675 1261.62 -71.0167 1272.75 -54.4033C1283.9 -37.7798 1296.98 -18.4611 1313.24 3.65826C1334.51 32.586 1352.72 55.6986 1367.96 75.0684C1383.2 94.4286 1395.48 110.077 1404.86 124.04C1414.25 138.01 1420.75 150.344 1424.4 163.094C1428.06 175.856 1428.84 188.98 1426.83 204.516V204.517C1426.03 210.72 1425.22 226.065 1420.44 243.429C1415.65 260.808 1406.87 280.35 1390.04 295.057C1367.55 314.706 1342.81 315.555 1315.29 315.226C1288.17 314.901 1258.25 313.427 1224.41 327.184L1222.8 327.85C1184.19 344.02 1157.66 369.395 1137.44 389.028C1127.36 398.815 1118.78 407.253 1111.07 412.318C1103.34 417.399 1096.19 419.269 1089.17 415.41V415.411C1084.32 412.747 1081.23 408.096 1079.07 401.567C1076.91 395.056 1075.63 386.548 1074.49 375.995C1072.21 354.842 1070.47 325.254 1063.49 286.085V286.084C1053.59 230.268 1047.51 197.953 1027.91 171.496C1015.56 154.82 1002.5 146.564 992.514 139.564C987.54 136.076 983.247 132.847 980.274 129.009C977.262 125.122 975.62 120.636 975.862 114.701L975.89 114.185C976.238 108.875 978.554 104.261 982.165 99.9141C985.879 95.4437 991.008 91.2012 996.884 86.7227C1008.68 77.7319 1023.6 67.6927 1037.1 52.626C1064.79 21.7111 1072.21 -4.75918 1078.29 -29.2607C1084.37 -53.7992 1089.13 -76.53 1111.67 -99.4667ZM1190.73 -132.123C1161.86 -135.631 1132.89 -117.842 1113.99 -98.9648L1113.1 -98.0654C1090.99 -75.5685 1086.33 -53.3644 1080.23 -28.7792C1074.12 -4.15687 1066.6 22.6863 1038.59 53.96C1024.93 69.2087 1009.79 79.4037 998.097 88.3135C992.23 92.7853 987.261 96.9103 983.704 101.191C980.161 105.456 978.066 109.822 977.861 114.783C977.639 120.24 979.128 124.264 981.855 127.784C984.62 131.353 988.673 134.428 993.662 137.926C1003.45 144.787 1016.52 153.064 1028.93 169.517L1029.52 170.306L1030.45 171.572C1049.64 198.25 1055.74 230.931 1065.46 285.734L1066.1 289.387C1072.56 326.843 1074.28 355.383 1076.48 375.78C1077.62 386.332 1078.88 394.651 1080.97 400.939C1082.98 407.013 1085.72 411.07 1089.74 413.435L1090.13 413.658L1090.7 413.956C1096.59 416.895 1102.72 415.411 1109.97 410.647C1117.48 405.712 1125.91 397.443 1136.05 387.594C1155.96 368.262 1182.2 343.134 1220.2 326.777L1222.02 326.005C1256.97 311.348 1287.83 312.897 1315.31 313.226C1342.83 313.555 1366.85 312.656 1388.72 293.551C1405.15 279.197 1413.78 260.068 1418.51 242.898C1423.24 225.714 1424.03 210.631 1424.85 204.26C1426.82 188.948 1426.05 176.103 1422.48 163.645C1418.91 151.174 1412.53 139.036 1403.2 125.155C1393.87 111.268 1381.64 95.6838 1366.39 76.3047C1351.15 56.9353 1332.92 33.7999 1311.63 4.84283C1295.34 -17.3119 1282.24 -36.6586 1271.09 -53.289C1259.94 -69.9291 1250.76 -83.8213 1242.29 -95.1093C1225.36 -117.677 1211.46 -129.602 1190.73 -132.123ZM693.428 -353.701C695.477 -353.675 697.213 -353.331 698.304 -352.412C698.811 -351.988 699.178 -351.431 699.23 -350.736C699.279 -350.077 699.029 -349.468 698.693 -348.943C698.038 -347.918 696.776 -346.798 695.193 -345.558C693.583 -344.295 691.504 -342.805 689.113 -341.058C686.712 -339.303 683.97 -337.27 680.997 -334.894C669.113 -325.396 653.502 -310.405 641.39 -286.009L641.389 -286.008C615.223 -233.321 628.825 -179.896 641.668 -125.731C654.483 -71.6847 666.52 -16.9401 636.324 37.6495V37.6505C629.239 50.4566 624.974 54.7031 620.022 59.7579C615.153 64.7262 609.577 70.5207 599.746 86.5079V86.5089C573.029 129.928 567.978 167.703 563.765 200.604C559.555 233.472 556.178 261.71 532.479 285.449C495.702 322.34 442.258 319.018 436.15 319.509L435.895 319.535C409.765 323.078 389.136 313.063 369.578 297.099C359.808 289.124 350.28 279.643 340.453 269.603C330.616 259.551 320.48 248.939 309.451 238.64H309.45C248.812 181.973 192.007 158.309 147.879 142.217C125.844 134.181 106.844 127.994 92.1768 120.521C77.4762 113.03 66.9327 104.156 61.9435 90.6339C55.3042 72.6441 60.1161 51.88 73.3331 29.5167C86.5587 7.13873 108.298 -17.0145 135.858 -41.9101C190.985 -91.7086 269.592 -144.646 350.586 -192.478C431.589 -240.316 515.025 -283.075 579.837 -312.509C612.241 -327.225 640.008 -338.618 660.496 -345.65C670.736 -349.165 679.188 -351.602 685.506 -352.814C688.662 -353.42 691.324 -353.728 693.428 -353.701ZM693.402 -351.701C691.49 -351.726 688.977 -351.444 685.883 -350.851C679.701 -349.664 671.352 -347.262 661.146 -343.759C640.742 -336.755 613.04 -325.391 580.664 -310.687C515.917 -281.283 432.545 -238.558 351.604 -190.757C270.653 -142.95 192.179 -90.0916 137.198 -40.4257C109.704 -15.5892 88.1324 8.40667 75.0548 30.5342C61.9686 52.6763 57.4847 72.7744 63.8204 89.9415C68.5611 102.79 78.5951 111.355 93.0851 118.738C107.609 126.139 126.413 132.26 148.564 140.338C192.807 156.472 249.897 180.249 310.816 237.178C321.887 247.517 332.067 258.176 341.882 268.204C351.708 278.244 361.168 287.652 370.843 295.549C390.174 311.329 410.259 320.993 435.626 317.554C440.875 316.842 494.329 320.886 531.064 284.037C554.209 260.852 557.557 233.324 561.78 200.35C565.933 167.923 570.929 130.457 596.795 87.5098L598.043 85.46C607.963 69.3281 613.636 63.4167 618.593 58.3575C623.465 53.3848 627.603 49.2819 634.574 36.6817C664.349 -17.1468 652.556 -71.1456 639.723 -125.27C626.918 -179.277 613.056 -233.452 639.598 -286.897C651.878 -311.633 667.715 -326.839 679.749 -336.456C682.755 -338.858 685.523 -340.911 687.933 -342.672C690.352 -344.44 692.385 -345.897 693.96 -347.132C695.563 -348.389 696.56 -349.32 697.009 -350.021C697.225 -350.359 697.24 -350.531 697.235 -350.588C697.234 -350.609 697.23 -350.704 697.021 -350.879L697.018 -350.881C696.489 -351.327 695.367 -351.676 693.402 -351.701ZM1204.23 -13.2001C1211.58 -15.7618 1219.46 -17.045 1227.32 -15.1747L1228.08 -14.9843L1228.66 -14.8261C1240.73 -11.4278 1248.3 -2.72966 1256.52 10.8301C1260.69 17.7158 1265.07 25.9257 1270.29 35.3956C1275.18 44.2847 1280.84 54.3159 1287.79 65.4932L1289.2 67.7442V67.7452C1308.93 99.1463 1322.63 119.055 1329.95 135.243C1333.62 143.369 1335.71 150.618 1336.15 157.974C1336.6 165.332 1335.38 172.735 1332.53 181.163V181.164C1331.88 183.062 1331.2 186.007 1330.19 189.748C1329.2 193.449 1327.92 197.833 1326.12 202.463C1322.53 211.717 1316.83 222.003 1307.12 229.813H1307.12C1293.65 240.629 1279.02 241.828 1263.14 242.138C1247.23 242.449 1230.03 241.871 1210.89 248.813H1210.89C1187.78 257.18 1170.55 268.79 1156.4 276.762C1149.36 280.73 1143.02 283.825 1137.15 285.067C1131.22 286.321 1125.72 285.694 1120.42 282.218V282.217C1112.97 277.327 1109.23 268.257 1105.99 255.167C1104.37 248.594 1102.86 240.924 1101.1 232.152C1099.33 223.372 1097.31 213.465 1094.66 202.38C1086.55 168.49 1081.49 146.444 1071.72 128.478V128.477C1065.86 117.767 1060.09 111.729 1056.29 106.472C1054.41 103.866 1052.99 101.418 1052.44 98.7188C1051.88 95.9897 1052.24 93.1149 1053.68 89.6866C1055.02 86.4956 1057.57 83.818 1060.86 81.3829C1064.15 78.9468 1068.26 76.6986 1072.82 74.3975C1081.98 69.7736 1093.02 64.9026 1103.59 57.7442C1125.1 43.1531 1137.4 32.3974 1148.16 23.0684C1158.94 13.7249 1168.2 5.78732 1183.61 -3.08295C1189.57 -6.5252 1196.66 -10.5579 1204.23 -13.2001ZM1227.57 -13.0507C1219.98 -15.0546 1212.26 -13.8823 1204.89 -11.3124C1197.52 -8.74054 1190.59 -4.79966 1184.61 -1.34955H1184.6C1169.37 7.42021 1160.23 15.2516 1149.47 24.5792C1138.69 33.9213 1126.33 44.74 1104.71 59.3995H1104.71C1094.01 66.6532 1082.77 71.617 1073.72 76.1827C1069.17 78.4765 1065.19 80.6619 1062.05 82.9903C1058.9 85.3194 1056.67 87.7368 1055.52 90.463C1054.2 93.6133 1053.94 96.0742 1054.4 98.3204C1054.86 100.596 1056.08 102.764 1057.91 105.3C1061.54 110.324 1067.54 116.669 1073.48 127.52L1073.48 127.523C1083.4 145.777 1088.52 168.136 1096.6 201.914C1099.26 213.036 1101.29 222.973 1103.06 231.758C1104.82 240.551 1106.32 248.168 1107.93 254.688C1111.07 267.373 1114.56 275.596 1120.9 280.119L1121.52 280.546L1121.97 280.832C1126.61 283.717 1131.41 284.237 1136.73 283.11C1142.29 281.936 1148.39 278.979 1155.42 275.019C1168.98 267.379 1185.81 256.106 1208.04 247.733L1210.21 246.932C1229.72 239.853 1247.3 240.447 1263.1 240.139C1278.94 239.829 1292.96 238.618 1305.87 228.253C1315.2 220.743 1320.73 210.81 1324.26 201.738C1326.02 197.205 1327.28 192.899 1328.26 189.231C1329.23 185.603 1329.96 182.5 1330.63 180.521C1333.43 172.273 1334.58 165.134 1334.16 158.094C1333.73 151.051 1331.73 144.045 1328.12 136.066C1320.89 120.045 1307.33 100.347 1287.51 68.8087V68.8077C1279.87 56.6753 1273.76 45.8563 1268.53 36.3604C1263.3 26.852 1258.95 18.7061 1254.81 11.8672C1246.52 -1.80688 1239.19 -9.97748 1227.57 -13.0507ZM533.964 -147.895C534.288 -147.802 534.659 -147.661 534.948 -147.405C535.302 -147.093 535.501 -146.634 535.413 -146.117C535.343 -145.708 535.109 -145.379 534.921 -145.155C534.716 -144.911 534.453 -144.663 534.167 -144.415C533.599 -143.922 532.802 -143.313 531.898 -142.602C530.979 -141.879 529.908 -141.019 528.734 -139.985C524.053 -135.863 517.7 -128.935 513.247 -117.063L513.246 -117.061C508.506 -104.5 508.986 -91.5627 512.094 -78.2382C515.207 -64.8928 520.932 -51.2508 526.618 -37.2724C537.945 -9.42832 549.136 19.7451 537.907 49.3995V49.4005C535.309 56.2498 533.91 58.7892 532.122 61.7667C530.481 64.4999 528.516 67.5982 524.908 74.9854L524.164 76.5215C513.075 99.589 513.076 120.331 513.252 138.939C513.428 157.475 513.809 174.131 503.031 188.414C494.752 199.396 483.888 204.848 474.983 207.998C470.539 209.57 466.547 210.58 463.649 211.4C462.182 211.816 461.028 212.173 460.205 212.524C459.795 212.7 459.506 212.857 459.317 212.995C459.121 213.137 459.1 213.208 459.109 213.186L458.972 213.531L458.642 213.703C447.241 219.639 437.002 218.783 426.301 213.909C415.694 209.078 404.532 200.25 391.227 190.202C356.214 163.767 321.803 150.88 293.705 141.049C279.677 136.14 267.157 131.972 256.976 127.257C246.794 122.541 238.798 117.213 233.906 109.896V109.897C227.615 100.493 227.262 89.4112 231.353 77.3633C235.435 65.34 243.966 52.2614 255.598 38.6866C278.868 11.5289 314.761 -17.8577 353.137 -45.081C391.525 -72.3131 432.452 -97.4182 465.835 -116.008C482.526 -125.302 497.341 -132.973 509.015 -138.469C514.851 -141.216 519.911 -143.423 524.034 -145.019C528.136 -146.607 531.377 -147.617 533.547 -147.925L533.759 -147.955L533.964 -147.895ZM532.606 -145.717C530.7 -145.292 528.065 -144.436 524.757 -143.155C520.693 -141.582 515.678 -139.395 509.866 -136.659C498.245 -131.189 483.473 -123.54 466.809 -114.261C433.48 -95.7013 392.615 -70.6344 354.294 -43.4501C315.961 -16.2569 280.226 13.0181 257.116 39.9883C245.558 53.4773 237.211 66.3294 233.246 78.0059C229.352 89.4758 229.71 99.7212 235.298 108.373L235.568 108.784C240.154 115.644 247.749 120.78 257.817 125.442C267.885 130.105 280.276 134.231 294.365 139.161C322.504 149.007 357.16 161.976 392.432 188.607C405.839 198.732 416.778 207.375 427.13 212.09C437.305 216.724 446.812 217.512 457.456 212.063C457.646 211.783 457.892 211.558 458.141 211.377C458.501 211.115 458.941 210.89 459.419 210.686C460.374 210.277 461.642 209.889 463.104 209.476C466.062 208.638 469.952 207.657 474.316 206.113C483.026 203.032 493.484 197.758 501.436 187.211C511.732 173.566 511.429 157.654 511.252 138.958C511.075 120.333 511.054 99.1761 522.361 75.6553L523.112 74.1036C526.758 66.6394 528.757 63.485 530.407 60.7364C532.131 57.8666 533.479 55.4354 536.037 48.6905C546.947 19.8773 536.139 -8.55947 524.766 -36.5185C519.102 -50.4417 513.303 -64.2503 510.146 -77.7841C506.984 -91.3385 506.448 -104.71 511.375 -117.768C515.968 -130.013 522.546 -137.201 527.412 -141.486C528.626 -142.555 529.73 -143.44 530.661 -144.173C531.465 -144.805 532.111 -145.305 532.606 -145.717ZM1126.91 76.5723C1133.61 74.5444 1142.79 73.8536 1153.17 74.2813C1163.91 74.7238 1176.01 76.367 1188.14 79.0274C1212.35 84.3386 1236.83 93.7441 1250.72 105.898L1251.63 106.705C1260.78 115.07 1264.15 123.961 1263.31 132.648C1262.46 141.553 1257.2 150.036 1249.73 157.337C1242.25 164.649 1232.46 170.862 1222.35 175.229C1212.24 179.593 1201.73 182.144 1192.81 182.066C1179.82 181.958 1166.27 176.253 1154.02 167.628C1141.76 158.996 1130.7 147.38 1122.69 135.312C1114.68 123.264 1109.63 110.654 1109.53 100.034C1109.48 94.7076 1110.68 89.8405 1113.42 85.8135C1116.16 81.7799 1120.39 78.6715 1126.27 76.7735L1126.91 76.5723ZM1153.09 76.2794C1142.47 75.8416 1133.31 76.5999 1126.89 78.6758L1126.88 78.6768C1121.36 80.4603 1117.52 83.3282 1115.07 86.9376C1112.61 90.5537 1111.49 94.9963 1111.53 100.015C1111.63 110.086 1116.45 122.312 1124.35 134.205C1132.24 146.077 1143.12 157.509 1155.17 165.992C1167.23 174.483 1180.38 179.962 1192.82 180.066C1201.4 180.141 1211.62 177.681 1221.55 173.392C1231.48 169.105 1241.06 163.019 1248.33 155.906C1255.62 148.783 1260.53 140.713 1261.32 132.456C1262.11 124.26 1258.86 115.671 1249.41 107.403H1249.4C1235.9 95.5848 1211.81 86.2685 1187.71 80.9805C1175.68 78.3413 1163.7 76.7163 1153.09 76.2794ZM395.078 49.4161C405.438 49.1843 417.021 51.1974 428.343 55.3985C450.974 63.796 472.723 81.0037 481.545 106.774C486.531 121.341 486.544 130.689 482.721 136.233C478.863 141.828 471.44 143.09 462.887 142.425C454.265 141.754 444.051 139.09 434.085 136.312C424.068 133.519 414.314 130.615 406.46 129.38H406.458C385.054 125.988 366.262 115.165 357.495 101.515C353.098 94.6673 351.206 87.0724 352.853 79.3712C354.497 71.6776 359.641 64.0257 369.024 56.9874V56.9864C375.519 52.1204 384.733 49.6475 395.078 49.4161ZM427.647 57.2735C416.535 53.1506 405.204 51.1905 395.122 51.4161C385.027 51.642 376.271 54.0552 370.223 58.586L370.224 58.587C361.111 65.4231 356.326 72.6934 354.809 79.7891C353.294 86.8771 355.007 93.9389 359.178 100.434C367.548 113.467 385.747 124.072 406.772 127.404H406.771C414.773 128.663 424.684 131.615 434.622 134.386C444.612 137.171 454.644 139.777 463.042 140.431C471.51 141.089 477.882 139.728 481.074 135.098C484.302 130.417 484.621 121.939 479.652 107.423C471.077 82.3694 449.882 65.5242 427.647 57.2735Z" fill="#2E2D2B"/>
</svg>
