<svg width="20" height="20" viewBox="0 0 20 20" fill="none" xmlns="http://www.w3.org/2000/svg">
<path d="M9.99995 0C10.5522 6.58593e-09 10.9999 0.447715 10.9999 1C10.9999 1.55228 10.5522 2 9.99995 2C8.4177 2 6.87121 2.46958 5.55561 3.34863C4.24009 4.22764 3.21483 5.47676 2.60932 6.93848C2.00386 8.40021 1.84465 10.0088 2.15327 11.5605C2.46195 13.1124 3.2239 14.5384 4.34272 15.6572C5.46154 16.776 6.88755 17.538 8.4394 17.8467C9.99117 18.1553 11.5997 17.9961 13.0615 17.3906C14.5232 16.7851 15.7723 15.7599 16.6513 14.4443C17.5304 13.1287 18 11.5823 18 10C18 9.44771 18.4477 9 19 9C19.5522 9 20 9.44771 20 10C20 11.9778 19.4132 13.9112 18.3144 15.5557C17.2156 17.2001 15.6543 18.4824 13.8271 19.2393C11.9998 19.9961 9.98859 20.1935 8.04878 19.8076C6.10909 19.4217 4.32711 18.4697 2.92866 17.0713C1.53021 15.6728 0.578223 13.8909 0.192332 11.9512C-0.19352 10.0114 0.00381535 8.00011 0.760692 6.17285C1.51756 4.34567 2.79987 2.78434 4.44429 1.68555C6.08878 0.586733 8.02214 0 9.99995 0Z" fill="white"/>
<path fill-rule="evenodd" clip-rule="evenodd" d="M7.72366 8.97952C7.34166 8.58052 6.70966 8.56452 6.30966 8.94652C5.91066 9.32752 5.89466 9.96052 6.27666 10.3605L8.49966 12.6905C8.68766 12.8875 8.94766 12.9995 9.21966 13.0005H9.22366C9.49466 13.0005 9.75366 12.8905 9.94166 12.6955L16.7187 5.69552C17.1027 5.29852 17.0927 4.66552 16.6957 4.28152C16.2977 3.89652 15.6647 3.90852 15.2817 4.30452L9.22866 10.5575L7.72366 8.97952Z" fill="white"/>
</svg>
