<svg width="14" height="14" viewBox="0 0 14 14" fill="none" xmlns="http://www.w3.org/2000/svg">
<path d="M12.5058 0.50483C12.7792 0.231463 13.2227 0.231463 13.496 0.50483C13.7694 0.778197 13.7694 1.2217 13.496 1.49506L1.49604 13.4951C1.22267 13.7684 0.779173 13.7684 0.505806 13.4951C0.23244 13.2217 0.23244 12.7782 0.505806 12.5048L12.5058 0.50483Z" fill="#1F2020"/>
<path d="M0.505731 0.504876C0.744806 0.2658 1.11395 0.235936 1.38561 0.415032L1.49597 0.504876L13.496 12.5049L13.5858 12.6152C13.7649 12.8869 13.735 13.256 13.496 13.4951C13.2569 13.7342 12.8877 13.7641 12.6161 13.585L12.5057 13.4951L0.505731 1.49511L0.415887 1.38476C0.23679 1.11309 0.266655 0.743952 0.505731 0.504876Z" fill="#1F2020"/>
</svg>
