<svg width="20" height="24" viewBox="0 0 20 24" fill="none" xmlns="http://www.w3.org/2000/svg">
<path d="M14.5059 0.504876C14.7449 0.2658 15.1141 0.235936 15.3857 0.415032L15.4961 0.504876L19.4961 4.50488C19.7695 4.77824 19.7695 5.22174 19.4961 5.49511L15.4961 9.49511C15.2227 9.76848 14.7792 9.76848 14.5059 9.49511C14.2325 9.22174 14.2325 8.77824 14.5059 8.50488L18.0107 4.99999L14.5059 1.49511L14.416 1.38476C14.2369 1.11309 14.2668 0.743952 14.5059 0.504876Z" fill="black"/>
<path d="M0.300781 11V8.99999C0.300781 7.75348 0.796313 6.55817 1.67773 5.67675C2.55916 4.79533 3.75446 4.2998 5.00098 4.2998H19.001L19.1416 4.31445C19.4608 4.37957 19.7012 4.66158 19.7012 4.99999C19.7012 5.3384 19.4608 5.62042 19.1416 5.68554L19.001 5.70019H5.00098C4.12576 5.70019 3.28684 6.04812 2.66797 6.66699C2.0491 7.28586 1.70117 8.12478 1.70117 8.99999V11C1.70117 11.3866 1.38758 11.7002 1.00098 11.7002C0.614377 11.7002 0.300781 11.3866 0.300781 11Z" fill="black"/>
<path d="M4.50586 14.5049C4.77923 14.2315 5.22273 14.2315 5.49609 14.5049C5.76946 14.7782 5.76946 15.2217 5.49609 15.4951L1.99121 19L5.49609 22.5049L5.58594 22.6152C5.76503 22.8869 5.73517 23.256 5.49609 23.4951C5.25702 23.7342 4.88788 23.764 4.61621 23.585L4.50586 23.4951L0.505859 19.4951C0.232492 19.2217 0.232492 18.7782 0.505859 18.5049L4.50586 14.5049Z" fill="black"/>
<path d="M18.3008 15V13C18.3008 12.6134 18.6144 12.2998 19.001 12.2998C19.3876 12.2998 19.7012 12.6134 19.7012 13V15C19.7012 16.2465 19.2056 17.4418 18.3242 18.3232C17.4428 19.2047 16.2475 19.7002 15.001 19.7002H1.00098C0.614377 19.7002 0.300781 19.3866 0.300781 19C0.300781 18.6134 0.614377 18.2998 1.00098 18.2998H15.001C15.8762 18.2998 16.7151 17.9519 17.334 17.333C17.9529 16.7141 18.3008 15.8752 18.3008 15Z" fill="black"/>
</svg>
