<svg width="24" height="25" viewBox="0 0 24 25" fill="none" xmlns="http://www.w3.org/2000/svg">
<rect y="0.5" width="24" height="24" rx="12" fill="#1F8B48"/>
<path fill-rule="evenodd" clip-rule="evenodd" d="M15.3334 11.6667H12.8334V9.16675C12.8334 8.70591 12.4601 8.33342 12.0001 8.33342C11.5401 8.33342 11.1667 8.70591 11.1667 9.16675V12.5001C11.1667 12.9609 11.5401 13.3334 12.0001 13.3334H15.3334C15.7942 13.3334 16.1667 12.9609 16.1667 12.5001C16.1667 12.0392 15.7942 11.6667 15.3334 11.6667ZM12.0001 19.1667C8.32425 19.1667 5.33341 16.1759 5.33341 12.5001C5.33341 8.82425 8.32425 5.83341 12.0001 5.83341C15.6759 5.83341 18.6667 8.82425 18.6667 12.5001C18.6667 16.1759 15.6759 19.1667 12.0001 19.1667ZM12.0001 4.16675C7.40508 4.16675 3.66675 7.90508 3.66675 12.5001C3.66675 17.0951 7.40508 20.8334 12.0001 20.8334C16.5951 20.8334 20.3334 17.0951 20.3334 12.5001C20.3334 7.90508 16.5951 4.16675 12.0001 4.16675Z" fill="white"/>
</svg>
