<svg width="24" height="25" viewBox="0 0 24 25" fill="none" xmlns="http://www.w3.org/2000/svg">
<rect y="0.5" width="24" height="24" rx="12" fill="#1F8B48"/>
<path fill-rule="evenodd" clip-rule="evenodd" d="M17.8334 17.4999H6.16675C5.70758 17.4999 5.33341 17.1266 5.33341 16.6666V8.54159L11.5001 13.1666C11.6484 13.2783 11.8242 13.3333 12.0001 13.3333C12.1759 13.3333 12.3517 13.2783 12.5001 13.1666L18.6667 8.54159V16.6666C18.6667 17.1266 18.2926 17.4999 17.8334 17.4999ZM17.2776 7.49992L12.0001 11.4583L6.72258 7.49992H17.2776ZM17.8334 5.83325H6.16675C4.78841 5.83325 3.66675 6.95492 3.66675 8.33325V16.6666C3.66675 18.0449 4.78841 19.1666 6.16675 19.1666H17.8334C19.2117 19.1666 20.3334 18.0449 20.3334 16.6666V8.33325C20.3334 6.95492 19.2117 5.83325 17.8334 5.83325Z" fill="white"/>
</svg>
