<svg width="24" height="25" viewBox="0 0 24 25" fill="none" xmlns="http://www.w3.org/2000/svg">
<rect y="0.5" width="24" height="24" rx="12" fill="#1F8B48"/>
<path fill-rule="evenodd" clip-rule="evenodd" d="M11.9999 11.6663C11.3108 11.6663 10.7499 11.1055 10.7499 10.4163C10.7499 9.72716 11.3108 9.16633 11.9999 9.16633C12.6891 9.16633 13.2499 9.72716 13.2499 10.4163C13.2499 11.1055 12.6891 11.6663 11.9999 11.6663ZM11.9999 7.49966C10.3916 7.49966 9.08325 8.808 9.08325 10.4163C9.08325 12.0247 10.3916 13.333 11.9999 13.333C13.6083 13.333 14.9166 12.0247 14.9166 10.4163C14.9166 8.808 13.6083 7.49966 11.9999 7.49966ZM11.9999 18.8717C10.6041 17.5517 6.99992 13.8459 6.99992 10.7684C6.99992 8.04758 9.24242 5.83341 11.9999 5.83341C14.7574 5.83341 16.9999 8.04758 16.9999 10.7684C16.9999 13.8459 13.3958 17.5517 11.9999 18.8717ZM11.9999 4.16675C8.32409 4.16675 5.33325 7.12758 5.33325 10.7684C5.33325 15.3309 11.2074 20.4176 11.4574 20.6317C11.6141 20.7659 11.8066 20.8334 11.9999 20.8334C12.1933 20.8334 12.3858 20.7659 12.5424 20.6317C12.7924 20.4176 18.6666 15.3309 18.6666 10.7684C18.6666 7.12758 15.6758 4.16675 11.9999 4.16675Z" fill="white"/>
</svg>
