<svg width="24" height="25" viewBox="0 0 24 25" fill="none" xmlns="http://www.w3.org/2000/svg">
<rect y="0.5" width="24" height="24" rx="12" fill="#1F8B48"/>
<path fill-rule="evenodd" clip-rule="evenodd" d="M7.50008 5.83341C6.30508 5.83341 5.33341 6.80508 5.33341 8.00008C5.33341 14.1567 10.3426 19.1667 16.5001 19.1667C17.6942 19.1667 18.6667 18.1951 18.6667 17.0001C18.6667 16.9076 18.6609 16.8167 18.6492 16.7267L14.7992 15.8434C14.7226 15.9901 14.6384 16.1492 14.5617 16.2976C14.1817 17.0226 13.9067 17.5492 13.2051 17.2667C10.4501 16.3001 8.20091 14.0501 7.22175 11.2617C6.92425 10.6076 7.49091 10.3109 8.20925 9.93591C8.35508 9.85925 8.51258 9.77675 8.65675 9.70175L7.77341 5.85091C7.68091 5.83925 7.59091 5.83341 7.50008 5.83341ZM16.5001 20.8334C9.42341 20.8334 3.66675 15.0767 3.66675 8.00008C3.66675 5.88591 5.38591 4.16675 7.50008 4.16675C7.71675 4.16675 7.93091 4.18508 8.13841 4.22091C8.34091 4.25341 8.54425 4.30508 8.74258 4.37341C9.01341 4.46758 9.21758 4.69508 9.28175 4.97508L10.4226 9.94508C10.4859 10.2184 10.4067 10.5051 10.2117 10.7084C10.0984 10.8267 10.0959 10.8292 9.06258 11.3701C9.89925 13.1817 11.3534 14.6309 13.1284 15.4392C13.6701 14.4051 13.6734 14.4017 13.7917 14.2884C13.9951 14.0934 14.2834 14.0176 14.5551 14.0776L19.5259 15.2184C19.8051 15.2826 20.0326 15.4859 20.1259 15.7567C20.1942 15.9534 20.2459 16.1567 20.2801 16.3659C20.3151 16.5717 20.3334 16.7851 20.3334 17.0001C20.3334 19.1142 18.6134 20.8334 16.5001 20.8334Z" fill="white"/>
</svg>
