<svg width="20" height="18" viewBox="0 0 20 18" fill="none" xmlns="http://www.w3.org/2000/svg">
<path d="M13.9736 0.401367C14.732 0.396673 15.4832 0.549139 16.1787 0.851563C16.7886 1.11682 17.3436 1.49166 17.8174 1.95605L18.0156 2.16016L18.0205 2.16602C19.0636 3.33335 19.6278 4.85121 19.6006 6.41602V6.41992C19.5563 8.1944 18.8663 9.8922 17.6591 11.1943L17.6582 11.1934C16.2675 12.7256 14.7557 14.1432 13.1377 15.4336L13.1386 15.4346C12.5191 15.962 11.8196 16.5573 11.0937 17.1914V17.1924C10.7914 17.4558 10.4038 17.5991 10.0029 17.5986V17.5996C9.60182 17.5997 9.21406 17.4544 8.91208 17.1904C8.19007 16.5593 7.48991 15.9642 6.87106 15.4375V15.4365C5.2519 14.1455 3.73928 12.7266 2.34762 11.1934V11.1943C1.13968 9.8927 0.448534 8.19554 0.403289 6.4209V6.41602C0.376007 4.85121 0.940261 3.33335 1.98337 2.16602L1.98825 2.16016C2.50231 1.60061 3.12821 1.15467 3.82516 0.851563C4.52001 0.549399 5.27057 0.396949 6.02829 0.401367V0.400391L6.03122 0.401367C6.03252 0.401376 6.03382 0.400381 6.03512 0.400391L6.03415 0.401367C7.1943 0.39734 8.3221 0.784881 9.23239 1.50391H9.23141C9.50853 1.7208 9.7658 1.96093 10.0029 2.21973C10.24 1.96128 10.4973 1.72146 10.7744 1.50488C11.6836 0.786324 12.8097 0.398434 13.9687 0.401367V0.400391L13.9716 0.401367L13.9746 0.400391L13.9736 0.401367ZM6.02731 1.60059C5.43469 1.59636 4.84704 1.71586 4.30368 1.95215C3.76298 2.18732 3.27644 2.53169 2.87692 2.96484C2.03623 3.90565 1.58183 5.12897 1.60251 6.38965C1.63788 7.77959 2.14754 9.11349 3.04294 10.1709L3.22751 10.3779L3.23239 10.3838C4.58601 11.8755 6.05794 13.2556 7.63376 14.5107L7.64157 14.5166L7.64938 14.5234C8.26747 15.0495 8.97322 15.6499 9.70212 16.2871C9.78522 16.3598 9.89228 16.4004 10.0029 16.4004V16.7393L10.0039 16.4004C10.1147 16.4006 10.2223 16.3598 10.3056 16.2871C11.0377 15.6476 11.7422 15.0475 12.3613 14.5205L12.3681 14.5146L12.3759 14.5078C13.9505 13.2533 15.4218 11.8745 16.7744 10.3838L16.7793 10.3789C17.7878 9.29102 18.3643 7.87278 18.4013 6.39062C18.4223 5.1296 17.9668 3.90687 17.1259 2.96582V2.96484C16.7265 2.53191 16.2407 2.18723 15.7002 1.95215C15.1568 1.71586 14.5692 1.59636 13.9765 1.60059H13.9707C13.081 1.59725 12.2162 1.89494 11.5185 2.44629L11.5156 2.44922C11.1247 2.75453 10.7798 3.11438 10.4912 3.51758L10.0029 4.2002L9.51462 3.51758C9.22624 3.11397 8.88107 2.75396 8.4902 2.44824L8.48825 2.44629C7.78991 1.89468 6.92452 1.59655 6.03415 1.60059H6.02731Z" fill="black"/>
</svg>
