<svg width="130" height="23" viewBox="0 0 130 23" fill="none" xmlns="http://www.w3.org/2000/svg">
<g clip-path="url(#clip0_4950_3740)">
<path d="M16.5516 14.8C15.8316 17.05 13.8516 19.3 10.4016 19.3C6.47156 19.3 3.50156 16.3 3.50156 11.5C3.50156 6.70001 6.47156 3.70001 10.4016 3.70001C13.0716 3.70001 15.5016 5.20001 16.5516 8.05001H19.8516C18.9816 4.30001 15.6516 0.700012 10.4016 0.700012C4.88156 0.700012 0.351563 5.05001 0.351562 11.5C0.351562 17.95 4.88156 22.3 10.4016 22.3C16.0716 22.3 19.1316 18.1 19.8516 14.8H16.5516Z" fill="#1F2020"/>
<path d="M32.3156 22.3C37.8356 22.3 42.3656 17.95 42.3656 11.5C42.3656 5.05001 37.8356 0.700012 32.3156 0.700012C26.7956 0.700012 22.2656 5.05001 22.2656 11.5C22.2656 17.95 26.7956 22.3 32.3156 22.3ZM32.3156 3.70001C36.2456 3.70001 39.2156 6.70001 39.2156 11.5C39.2156 16.3 36.2456 19.3 32.3156 19.3C28.3856 19.3 25.4156 16.3 25.4156 11.5C25.4156 6.70001 28.3856 3.70001 32.3156 3.70001Z" fill="#1F2020"/>
<path d="M45.957 22H59.307V19H49.107V1H45.957V22Z" fill="#1F2020"/>
<path d="M70.1086 22.3C75.6286 22.3 80.1586 17.95 80.1586 11.5C80.1586 5.05001 75.6286 0.700012 70.1086 0.700012C64.5886 0.700012 60.0586 5.05001 60.0586 11.5C60.0586 17.95 64.5886 22.3 70.1086 22.3ZM70.1086 3.70001C74.0386 3.70001 77.0086 6.70001 77.0086 11.5C77.0086 16.3 74.0386 19.3 70.1086 19.3C66.1786 19.3 63.2086 16.3 63.2086 11.5C63.2086 6.70001 66.1786 3.70001 70.1086 3.70001Z" fill="#1F2020"/>
<path d="M83.75 22H86.9V14.5H88.4L95.9 22H99.95L92.45 14.5H93.2C96.65 14.5 99.35 11.83 99.35 7.75C99.35 3.67 96.65 1 93.2 1H83.75V22ZM86.9 11.5V4H93.05C94.73 4 96.2 5.5 96.2 7.75C96.2 10 94.73 11.5 93.05 11.5H86.9Z" fill="#1F2020"/>
<path d="M102.215 15.55C102.215 19.3 105.215 22.3 110.465 22.3C115.715 22.3 118.415 19.6 118.415 16.15C118.415 12.82 116.495 11.05 112.265 10.3L108.965 9.70001C106.685 9.25001 105.815 8.20001 105.815 6.85001C105.815 5.17001 107.315 3.70001 110.165 3.70001C113.165 3.70001 114.965 5.50001 114.965 7.45001H118.115C118.115 3.70001 115.415 0.700012 110.165 0.700012C105.515 0.700012 102.665 3.40001 102.665 6.85001C102.665 9.73001 104.285 11.8 107.615 12.4L111.665 13.15C114.065 13.6 115.265 14.62 115.265 16.15C115.265 17.95 113.915 19.3 110.465 19.3C107.345 19.3 105.365 17.5 105.365 15.55H102.215Z" fill="#1F2020"/>
<path d="M130.004 4C130.004 6.20914 128.213 8 126.004 8C123.794 8 122.004 6.20914 122.004 4C122.004 1.79086 123.794 0 126.004 0C128.213 0 130.004 1.79086 130.004 4Z" fill="#1F2020"/>
</g>
<defs>
<clipPath id="clip0_4950_3740">
<rect width="130" height="23" fill="white"/>
</clipPath>
</defs>
</svg>
