<svg width="130" height="36" viewBox="0 0 130 36" fill="none" xmlns="http://www.w3.org/2000/svg">
<path d="M54.2533 9.77148C49.788 9.77148 46.158 13.3983 46.158 17.8595C46.158 22.3207 49.788 25.9475 54.2533 25.9475C58.7185 25.9475 62.3486 22.3207 62.3486 17.8595C62.3486 13.3983 58.7185 9.77148 54.2533 9.77148ZM54.2533 24.3193C50.6884 24.3193 47.7876 21.4211 47.7876 17.8595C47.7876 14.2978 50.6884 11.3997 54.2533 11.3997C57.8182 11.3997 60.7189 14.2978 60.7189 17.8595C60.7189 21.4211 57.8182 24.3193 54.2533 24.3193Z" fill="#1F8B48"/>
<path d="M88.3173 9.77148C83.852 9.77148 80.2219 13.3983 80.2219 17.8595C80.2219 22.3207 83.852 25.9475 88.3173 25.9475C92.7825 25.9475 96.4126 22.3207 96.4126 17.8595C96.4126 13.3983 92.7825 9.77148 88.3173 9.77148ZM88.3173 24.3193C84.7524 24.3193 81.8516 21.4211 81.8516 17.8595C81.8516 14.2978 84.7524 11.3997 88.3173 11.3997C91.8821 11.3997 94.7829 14.2978 94.7829 17.8595C94.7829 21.4211 91.8821 24.3193 88.3173 24.3193Z" fill="#1F8B48"/>
<path d="M76.5304 10.7202C73.4545 9.38097 69.9385 10.0485 67.5673 12.4175C64.4099 15.5721 64.4099 20.7009 67.5673 23.8555C69.1196 25.4063 71.1852 26.2286 73.2874 26.2286C74.31 26.2286 75.3449 26.0332 76.3349 25.6343C76.7504 25.4633 76.9541 24.9912 76.783 24.576C76.6119 24.1608 76.1393 23.9573 75.7197 24.1282C73.3078 25.1051 70.5577 24.5475 68.7162 22.7076C66.1943 20.188 66.1943 16.0931 68.7162 13.5735C70.6107 11.6808 73.4219 11.1475 75.8745 12.2181C76.286 12.3972 76.7667 12.2099 76.946 11.7988C77.1253 11.3877 76.9378 10.9074 76.5264 10.7283L76.5304 10.7202Z" fill="#1F8B48"/>
<path d="M112.277 25.1293V10.5856C112.277 10.1378 111.911 9.77148 111.462 9.77148C111.014 9.77148 110.648 10.1378 110.648 10.5856V22.4794L102.279 10.1297C102.08 9.83254 101.709 9.70229 101.367 9.80812C101.024 9.91395 100.792 10.2274 100.792 10.5856V25.1334C100.792 25.5811 101.159 25.9475 101.607 25.9475C102.055 25.9475 102.422 25.5811 102.422 25.1334V13.2395L110.79 25.5852C110.823 25.634 110.864 25.6788 110.908 25.7195C110.925 25.7317 110.941 25.7439 110.953 25.7561C110.986 25.7806 111.018 25.805 111.055 25.8253C111.071 25.8376 111.092 25.8457 111.108 25.8538C111.149 25.8742 111.189 25.8864 111.23 25.8986C111.246 25.9027 111.263 25.9108 111.275 25.9149C111.332 25.9271 111.393 25.9352 111.454 25.9352C111.528 25.9352 111.597 25.923 111.662 25.9027C111.678 25.8986 111.695 25.8945 111.711 25.8864C111.78 25.862 111.849 25.8335 111.906 25.7928C111.911 25.7928 111.915 25.7846 111.919 25.7846C111.959 25.7561 111.996 25.7276 112.029 25.691C112.049 25.6707 112.061 25.6503 112.082 25.63C112.098 25.6096 112.114 25.5893 112.131 25.5689C112.147 25.5445 112.159 25.5201 112.171 25.4956C112.184 25.4712 112.196 25.4509 112.208 25.4264C112.22 25.402 112.224 25.3735 112.232 25.345C112.241 25.3206 112.249 25.3002 112.253 25.2758C112.261 25.2229 112.269 25.1741 112.269 25.1212L112.277 25.1293Z" fill="#1F8B48"/>
<path d="M129.181 9.77148H117.924C117.476 9.77148 117.109 10.1378 117.109 10.5856C117.109 11.0333 117.476 11.3997 117.924 11.3997H122.74V25.1334C122.74 25.5811 123.107 25.9475 123.555 25.9475C124.003 25.9475 124.37 25.5811 124.37 25.1334V11.3997H129.185C129.633 11.3997 130 11.0333 130 10.5856C130 10.1378 129.633 9.77148 129.185 9.77148H129.181Z" fill="#1F8B48"/>
<path d="M39.9163 20.1062C41.9167 19.3287 43.3427 17.3912 43.3427 15.124C43.3427 12.1729 40.9389 9.77539 37.9893 9.77539H32.6725C32.2243 9.77539 31.8577 10.1417 31.8577 10.5895V25.1373C31.8577 25.585 32.2243 25.9514 32.6725 25.9514C33.1207 25.9514 33.4873 25.585 33.4873 25.1373V20.4766H37.9893C38.0585 20.4766 38.1237 20.4685 38.193 20.4644L41.8556 25.87C42.0145 26.102 42.2712 26.2282 42.5319 26.2282C42.6908 26.2282 42.8497 26.1834 42.9882 26.0898C43.363 25.8374 43.4568 25.3327 43.2082 24.9582L39.9245 20.1103L39.9163 20.1062ZM33.4833 11.3995H37.9852C40.0385 11.3995 41.7089 13.0684 41.7089 15.1199C41.7089 17.1714 40.0385 18.8403 37.9852 18.8403H33.4833V11.3995Z" fill="#1F8B48"/>
<path d="M23.1866 12.8694L1.35758 0.124284C0.754495 -0.228738 0 0.212539 0 0.915987V26.4088C0 27.1123 0.754495 27.5536 1.35758 27.2005L23.184 14.4554C23.7871 14.1024 23.7871 13.2224 23.184 12.8694H23.1866Z" fill="#1F8B48"/>
<path d="M2.87419 30.3079L12.4055 35.8758C13.0086 36.2288 13.763 35.7875 13.763 35.0841V23.9509C13.763 23.2475 13.0086 22.8062 12.4055 23.1592L2.87419 28.7271C2.2711 29.0801 2.2711 29.9601 2.87419 30.3131V30.3079Z" fill="#1F8B48"/>
</svg>
