<svg width="14" height="14" viewBox="0 0 14 14" fill="none" xmlns="http://www.w3.org/2000/svg">
<path d="M6 12.8337V1.16675C6 0.614463 6.44772 0.166748 7 0.166748C7.55228 0.166748 8 0.614463 8 1.16675V12.8337C7.99982 13.3859 7.55218 13.8337 7 13.8337C6.44782 13.8337 6.00018 13.3859 6 12.8337Z" fill="#1F2020"/>
<path d="M12.835 6L12.9365 6.00488C13.441 6.05592 13.835 6.4821 13.835 7C13.835 7.5179 13.441 7.94408 12.9365 7.99512L12.835 8H1.16797C0.615684 8 0.167969 7.55228 0.167969 7C0.167969 6.44772 0.615684 6 1.16797 6H12.835Z" fill="#1F2020"/>
</svg>
