<svg width="18" height="18" viewBox="0 0 18 18" fill="none" xmlns="http://www.w3.org/2000/svg">
<path d="M14.1348 8.16699C14.1348 4.8718 11.4631 2.20037 8.16797 2.2002C4.87267 2.2002 2.20117 4.87169 2.20117 8.16699C2.20135 11.4621 4.87278 14.1338 8.16797 14.1338C11.463 14.1336 14.1346 11.462 14.1348 8.16699ZM15.5342 8.16699C15.534 12.2352 12.2362 15.533 8.16797 15.5332C4.09958 15.5332 0.800957 12.2353 0.800781 8.16699C0.800781 4.09849 4.09947 0.799805 8.16797 0.799805C12.2363 0.79998 15.5342 4.0986 15.5342 8.16699Z" fill="#1F2020"/>
<path d="M12.3809 12.3799C12.62 12.1408 12.9891 12.111 13.2608 12.29L13.3711 12.3799L16.9961 16.0049L17.086 16.1152C17.2651 16.3869 17.2352 16.756 16.9961 16.9951C16.7571 17.2342 16.3879 17.2641 16.1163 17.085L16.0059 16.9951L12.3809 13.3701L12.2911 13.2598C12.112 12.9881 12.1418 12.619 12.3809 12.3799Z" fill="#1F2020"/>
</svg>
